<svg width="18" height="17" viewBox="0 0 18 17" fill="none" xmlns="http://www.w3.org/2000/svg">
<path d="M17.0811 8.42207C17.0811 12.8417 13.4919 16.4245 9.06448 16.4245C4.63702 16.4245 1.04785 12.8417 1.04785 8.42207C1.04785 4.00245 4.63702 0.419643 9.06448 0.419643C13.4919 0.419643 17.0811 4.00245 17.0811 8.42207Z" fill="#403B45" stroke="#403B45" stroke-width="0.8" stroke-miterlimit="10" stroke-linecap="round" stroke-linejoin="round"/>
<path fill-rule="evenodd" clip-rule="evenodd" d="M13.5594 5.72098C13.7691 5.93025 13.7691 6.26955 13.5594 6.47882L8.54904 11.4803C8.33939 11.6896 7.99949 11.6896 7.78985 11.4803L4.92676 8.62233C4.71712 8.41306 4.71712 8.07376 4.92676 7.86449C5.13641 7.65521 5.47631 7.65521 5.68595 7.86449L8.16944 10.3436L12.8002 5.72098C13.0099 5.51171 13.3498 5.51171 13.5594 5.72098Z" fill="white"/>
</svg>
