<svg width="38" height="32" viewBox="0 0 38 32" fill="none" xmlns="http://www.w3.org/2000/svg">
<path fill-rule="evenodd" clip-rule="evenodd" d="M9.53519 1.31723C15.8333 0.769746 22.167 0.769746 28.4651 1.31723L31.4856 1.57979C34.3757 1.83102 36.717 4.03031 37.1484 6.8991C38.0557 12.9325 38.0557 19.0677 37.1484 25.1011C37.0691 25.6289 36.925 26.1341 36.7249 26.6086C36.5921 26.9232 36.1826 26.9709 35.9529 26.7183L27.11 16.9911C26.7105 16.5516 26.0892 16.3893 25.5258 16.5771L20.4641 18.2643L13.1212 10.0036C12.8468 9.69481 12.4571 9.51291 12.0442 9.50077C11.6312 9.48864 11.2316 9.64734 10.9395 9.93946L1.11121 19.7677C0.808726 20.0702 0.292845 19.8777 0.268728 19.4506C0.0322567 15.2628 0.22663 11.0568 0.851849 6.8991C1.28324 4.03031 3.62458 1.83102 6.51472 1.57979L9.53519 1.31723ZM23.0001 10.0001C23.0001 8.34327 24.3433 7.00012 26.0001 7.00012C27.657 7.00012 29.0001 8.34327 29.0001 10.0001C29.0001 11.657 27.657 13.0001 26.0001 13.0001C24.3433 13.0001 23.0001 11.657 23.0001 10.0001Z" fill="white"/>
<path d="M0.92279 24.1988C0.812083 24.3095 0.759494 24.4657 0.781546 24.6207C0.804342 24.7809 0.827776 24.941 0.851849 25.1011C1.28324 27.9699 3.62459 30.1692 6.51472 30.4204L9.53519 30.683C15.8333 31.2305 22.167 31.2305 28.4651 30.683L31.4856 30.4204C32.3348 30.3466 33.1367 30.1046 33.8567 29.7268C34.1295 29.5836 34.1754 29.2229 33.9682 28.9949L25.7666 19.9731C25.6334 19.8266 25.4263 19.7725 25.2385 19.8351L20.4745 21.4231C19.9052 21.6129 19.2776 21.4451 18.879 20.9967L12.2882 13.582C12.0971 13.367 11.7643 13.3572 11.5609 13.5606L0.92279 24.1988Z" fill="white"/>
</svg>
