<svg width="1440" height="317" viewBox="0 0 1440 317" fill="none" xmlns="http://www.w3.org/2000/svg">
<path d="M1440 107.885C1440 107.885 1342.68 59.8412 1290.5 54.3854C1191.44 44.0283 1113.59 95.097 1014 96.3854C848.493 98.5265 799.019 53.7319 633.5 54.3855C473.41 55.0175 386.223 93.2369 226.5 82.3855C136.918 76.2993 0 63.8855 0 63.8855V316.885H1440V107.885Z" fill="url(#paint0_linear_30_271)"/>
<path d="M185.167 7H185.185C186.193 7 187 7.80348 187 8.80783V10.5791C187 11.5835 186.193 12.387 185.167 12.3687H185.148C184.14 12.3687 183.333 11.5652 183.333 10.5609V8.80783C183.333 7.80348 184.14 7 185.167 7Z" fill="#DFA12E"/>
<path d="M174.258 13.5557L173.543 12.8435C172.828 12.1313 171.673 12.1496 170.977 12.8435L170.958 12.8617C170.243 13.5739 170.243 14.7243 170.958 15.4183L171.673 16.1304C172.388 16.8426 173.525 16.8426 174.24 16.1304L174.258 16.1122C174.973 15.4183 174.973 14.2496 174.258 13.5557Z" fill="#DFA12E"/>
<path d="M168.685 25.1696H166.815C165.807 25.1696 165 25.973 165 26.9774V26.9957C165 28 165.807 28.8035 166.815 28.8035H168.667C169.693 28.8217 170.5 28.0183 170.5 27.0139V26.9957C170.5 25.973 169.693 25.1696 168.685 25.1696Z" fill="#DFA12E"/>
<path d="M199.375 12.8617C198.66 12.1496 197.505 12.1496 196.79 12.8435L196.075 13.5557C195.36 14.2678 195.36 15.4183 196.075 16.1122L196.093 16.1304C196.808 16.8426 197.963 16.8426 198.66 16.1304L199.375 15.4183C200.09 14.7061 200.09 13.5739 199.375 12.8617Z" fill="#DFA12E"/>
<path d="M174.167 26.9957C174.167 20.9513 179.098 16.0391 185.167 16.0391C189.332 16.0391 192.962 18.3535 194.829 21.7597C192.7 23.645 191.109 26.1199 190.315 28.9273C190.128 28.9178 189.94 28.913 189.75 28.913C184.932 28.913 180.838 31.998 179.349 36.2929C176.239 34.3559 174.167 30.9136 174.167 26.9957Z" fill="#DFA12E"/>
<path d="M170.958 41.1296C171.673 41.8417 172.828 41.8417 173.543 41.1296L174.258 40.4174C174.973 39.7052 174.955 38.5548 174.258 37.8609L174.24 37.8426C173.525 37.1304 172.37 37.1304 171.655 37.8426L170.94 38.5548C170.243 39.2852 170.243 40.4174 170.958 41.1296Z" fill="#DFA12E"/>
<path d="M220 59.0435H184.25C179.694 59.0435 176 55.3644 176 50.8261C176 47.2446 178.3 44.1982 181.51 43.0729C181.503 42.9189 181.5 42.7642 181.5 42.6087C181.5 36.5576 186.425 31.6522 192.5 31.6522C192.69 31.6522 192.878 31.657 193.065 31.6664C194.856 25.3358 200.697 20.6957 207.625 20.6957C215.978 20.6957 222.75 27.4406 222.75 35.7609C222.75 36.3325 222.718 36.8968 222.656 37.4519C227.448 38.6353 231 42.9479 231 48.087C231 54.1381 226.075 59.0435 220 59.0435Z" fill="#DFA12E"/>
<path d="M195.775 61.7826H191.975C190.953 61.7826 190.288 62.854 190.745 63.7647L193.875 70L197.005 63.7647C197.462 62.854 196.797 61.7826 195.775 61.7826Z" fill="#DFA12E"/>
<path d="M198.572 68.2898L200.453 62.671C200.63 62.1405 201.129 61.7826 201.69 61.7826C202.581 61.7826 203.209 62.6514 202.928 63.4928L201.047 69.1116C200.87 69.6421 200.371 70 199.81 70C198.919 70 198.291 69.1312 198.572 68.2898Z" fill="#DFA12E"/>
<path d="M204.072 68.2898L205.953 62.671C206.13 62.1405 206.629 61.7826 207.19 61.7826C208.081 61.7826 208.709 62.6514 208.428 63.4928L206.547 69.1116C206.37 69.6421 205.871 70 205.31 70C204.419 70 203.791 69.1312 204.072 68.2898Z" fill="#DFA12E"/>
<path d="M211.453 62.671L209.572 68.2898C209.291 69.1312 209.919 70 210.81 70C211.371 70 211.87 69.6421 212.047 69.1116L213.928 63.4928C214.209 62.6514 213.581 61.7826 212.69 61.7826C212.129 61.7826 211.63 62.1405 211.453 62.671Z" fill="#DFA12E"/>
<path d="M1168.33 53.6667H1165.03L1167.89 48.6538C1169.16 46.4316 1167.56 43.6667 1165 43.6667H1161.67V30.3333C1161.67 26.9151 1157.14 25.7117 1155.44 28.6795L1141.16 53.6667H1125C1119.48 53.6667 1115 49.1895 1115 43.6667C1115 39.3082 1117.79 35.601 1121.68 34.2315C1121.67 34.0442 1121.67 33.8559 1121.67 33.6667C1121.67 26.3029 1127.64 20.3333 1135 20.3333C1135.23 20.3333 1135.46 20.3391 1135.69 20.3506C1137.86 12.6468 1144.94 7 1153.33 7C1163.46 7 1171.67 15.2081 1171.67 25.3333C1171.67 26.029 1171.63 26.7157 1171.55 27.3912C1177.36 28.8313 1181.67 34.0795 1181.67 40.3333C1181.67 47.6971 1175.7 53.6667 1168.33 53.6667Z" fill="#DFA12E"/>
<path d="M1145 53.6667H1151.67V70.3333L1165 47H1158.33V30.3333L1145 53.6667Z" fill="#DFA12E"/>
<path d="M1140.17 70.3333H1136.49L1136.86 66.2593L1133.51 68.6204L1131.67 65.3796L1135.34 63.6667L1131.67 61.9537L1133.51 58.713L1136.86 61.0741L1136.49 57H1140.17L1139.8 61.0741L1143.16 58.713L1145 61.9537L1141.32 63.6667L1145 65.3796L1143.16 68.6204L1139.8 66.2593L1140.17 70.3333Z" fill="#DFA12E"/>
<defs>
<linearGradient id="paint0_linear_30_271" x1="720" y1="53" x2="720" y2="316.885" gradientUnits="userSpaceOnUse">
<stop stop-color="#E0A12E"/>
<stop offset="1" stop-color="#E0A12E" stop-opacity="0"/>
</linearGradient>
</defs>
</svg>
