<svg width="97" height="17" viewBox="0 0 97 17" fill="none" xmlns="http://www.w3.org/2000/svg">
<path d="M7.66485 0H11.1847V11.688C11.1847 12.7684 10.9407 13.7069 10.4528 14.5036C9.97031 15.3003 9.29868 15.9141 8.43791 16.3452C7.57713 16.7763 6.57654 16.9918 5.43615 16.9918C4.42186 16.9918 3.50077 16.8145 2.67289 16.4598C1.85049 16.0997 1.19805 15.554 0.71558 14.8228C0.233105 14.0862 -0.00539025 13.1613 9.24042e-05 12.0481H3.54463C3.5556 12.4901 3.64606 12.8694 3.81602 13.1858C3.99147 13.4969 4.22997 13.737 4.53151 13.9061C4.83854 14.0698 5.2004 14.1517 5.61708 14.1517C6.05569 14.1517 6.42577 14.0589 6.72732 13.8734C7.03435 13.6824 7.26736 13.4041 7.42636 13.0385C7.58535 12.6729 7.66485 12.2228 7.66485 11.688V0Z" fill="white"/>
<path d="M24.5323 0H28.0932V10.8859C28.0932 12.1082 27.7999 13.1777 27.2133 14.0944C26.6321 15.0111 25.8179 15.7259 24.7708 16.2388C23.7236 16.7463 22.5037 17 21.1111 17C19.713 17 18.4904 16.7463 17.4432 16.2388C16.396 15.7259 15.5818 15.0111 15.0007 14.0944C14.4195 13.1777 14.1289 12.1082 14.1289 10.8859V0H17.6899V10.5831C17.6899 11.2215 17.8297 11.789 18.1093 12.2855C18.3944 12.7821 18.7947 13.1722 19.31 13.4559C19.8254 13.7397 20.4257 13.8816 21.1111 13.8816C21.8019 13.8816 22.4022 13.7397 22.9121 13.4559C23.4275 13.1722 23.825 12.7821 24.1046 12.2855C24.3897 11.789 24.5323 11.2215 24.5323 10.5831V0Z" fill="white"/>
<path d="M45.1107 0V16.7626H42.035L34.7074 6.21233H34.584V16.7626H31.023V0H34.1482L41.4182 10.5421H41.5662V0H45.1107Z" fill="white"/>
<path d="M51.6139 0V16.7626H48.0529V0H51.6139Z" fill="white"/>
<path d="M54.5437 16.7626V0H61.1886C62.4661 0 63.5544 0.242818 64.4536 0.728455C65.3527 1.20863 66.038 1.87707 66.5096 2.73375C66.9865 3.58498 67.225 4.56716 67.225 5.68031C67.225 6.79345 66.9838 7.77564 66.5013 8.62687C66.0189 9.47809 65.3198 10.1411 64.4042 10.6158C63.4941 11.0905 62.3921 11.3279 61.0982 11.3279H56.8628V8.48772H60.5225C61.2078 8.48772 61.7725 8.37041 62.2166 8.13577C62.6662 7.89568 63.0007 7.56556 63.22 7.1454C63.4447 6.71979 63.5571 6.23142 63.5571 5.68031C63.5571 5.12374 63.4447 4.6381 63.22 4.2234C63.0007 3.80324 62.6662 3.47857 62.2166 3.2494C61.7671 3.01477 61.1969 2.89745 60.506 2.89745H58.1046V16.7626H54.5437Z" fill="white"/>
<path d="M69.538 16.7626V0H80.8871V2.922H73.099V6.91622H80.3032V9.83823H73.099V13.8406H80.92V16.7626H69.538Z" fill="white"/>
<path d="M83.7183 16.7626V0H90.3632C91.6352 0 92.7208 0.226448 93.6199 0.679345C94.5246 1.12679 95.2127 1.76248 95.6842 2.58642C96.1612 3.40491 96.3996 4.368 96.3996 5.47569C96.3996 6.58883 96.1584 7.54646 95.6759 8.34858C95.1935 9.14524 94.4944 9.75638 93.5788 10.182C92.6687 10.6076 91.5667 10.8204 90.2728 10.8204H85.8236V7.97207H89.6971C90.3769 7.97207 90.9417 7.87931 91.3912 7.69379C91.8408 7.50827 92.1753 7.22998 92.3946 6.85893C92.6194 6.48788 92.7318 6.0268 92.7318 5.47569C92.7318 4.91911 92.6194 4.44985 92.3946 4.06789C92.1753 3.68592 91.8381 3.39673 91.383 3.20029C90.9334 2.9984 90.366 2.89745 89.6806 2.89745H87.2792V16.7626H83.7183ZM92.814 9.13433L97 16.7626H93.0689L88.9734 9.13433H92.814Z" fill="white"/>
</svg>
