<svg width="18" height="17" viewBox="0 0 18 17" fill="none" xmlns="http://www.w3.org/2000/svg">
<path d="M9.06448 16.4336C13.4919 16.4336 17.0811 12.8508 17.0811 8.43116C17.0811 4.01154 13.4919 0.428738 9.06448 0.428738C4.63702 0.428738 1.04785 4.01154 1.04785 8.43116C1.04785 12.8508 4.63702 16.4336 9.06448 16.4336Z" stroke="white" stroke-width="0.8" stroke-miterlimit="10" stroke-linecap="round" stroke-linejoin="round"/>
<path fill-rule="evenodd" clip-rule="evenodd" d="M13.5594 5.73007C13.7691 5.93935 13.7691 6.27865 13.5594 6.48792L8.54904 11.4894C8.33939 11.6987 7.99949 11.6987 7.78985 11.4894L4.92676 8.63143C4.71712 8.42215 4.71712 8.08285 4.92676 7.87358C5.13641 7.66431 5.47631 7.66431 5.68595 7.87358L8.16944 10.3527L12.8002 5.73007C13.0099 5.5208 13.3498 5.5208 13.5594 5.73007Z" fill="white"/>
</svg>
